<svg xmlns="http://www.w3.org/2000/svg" xmlns:v="https://svgstorm.com"
viewBox = "0 0 500 500"
width="500"
height="500">
<g fill="None" fill-opacity="0.0" stroke="#000000" stroke-opacity="0.00" stroke-width="0.3"><path d="
M 0.00 500.00 
L 500.00 500.00
L 500.00 0.00
L 0.00 0.00
L 0.00 500.00
M 478.00 8.00 
C 503.96 18.06 490.80 52.14 494.00 74.00 C 494.00 184.67 494.00 295.33 494.00 406.00 C 491.34 431.61 499.72 461.08 489.00 484.00
C 474.26 501.38 447.23 489.50 427.00 493.00 C 308.33 493.00 189.67 493.00 71.00 493.00 C 51.16 489.47 22.19 502.09 10.00 482.00
C 1.26 458.78 8.24 429.60 6.00 404.00 C 6.00 294.33 6.00 184.67 6.00 75.00 C 9.31 52.85 -4.11 18.34 22.00 8.00
C 172.93 6.33 327.14 6.33 478.00 8.00 Z"/>
</g>
<g fill="None" fill-opacity="0.0" stroke="#004AAD" stroke-opacity="1.00" stroke-width="0.3"><path d="
M 22.00 8.00 
C 19.77 12.47 7.53 18.13 8.22 27.22 C 7.70 168.12 8.15 309.08 8.00 450.00 C 7.42 460.75 8.29 472.94 10.00 482.00
C 22.19 502.09 51.16 489.47 71.00 493.00 C 189.67 493.00 308.33 493.00 427.00 493.00 C 447.23 489.50 474.26 501.38 489.00 484.00
C 495.66 444.43 490.25 398.91 492.00 357.00 C 491.78 246.80 492.44 136.40 491.67 26.33 C 491.99 17.56 479.85 12.37 478.00 8.00
C 327.14 6.33 172.93 6.33 22.00 8.00
M 82.00 140.00 
C 84.33 203.43 82.33 268.82 83.00 333.00
C 112.33 333.00 141.67 333.00 171.00 333.00
C 171.67 268.83 169.67 203.35 172.00 140.00
C 242.43 137.67 314.82 139.67 386.00 139.00
C 388.19 139.52 391.62 137.86 393.00 140.00
C 426.04 139.51 472.57 151.60 473.00 192.00
C 474.56 194.61 474.72 200.46 473.00 203.00
C 474.75 224.72 458.98 246.18 438.00 250.00
C 445.66 255.10 458.42 256.85 465.75 265.25 C 473.83 273.54 478.31 284.58 479.00 296.00
C 480.63 301.26 480.69 309.81 479.00 315.00
C 477.61 351.89 438.31 373.77 405.00 374.00
C 381.90 376.33 356.85 374.33 333.00 375.00 C 323.77 372.50 302.13 381.88 305.00 366.00 C 305.00 304.33 305.00 242.67 305.00 181.00
C 277.00 181.00 249.00 181.00 221.00 181.00
C 221.00 201.00 221.00 221.00 221.00 241.00
C 247.33 241.00 273.67 241.00 300.00 241.00
C 301.66 253.59 301.67 269.48 300.00 282.00
C 273.67 282.00 247.33 282.00 221.00 282.00
C 221.00 312.67 221.00 343.33 221.00 374.00
C 158.90 376.33 94.85 374.33 32.00 375.00
C 32.00 296.33 32.00 217.67 32.00 139.00
C 48.50 139.67 66.32 137.67 82.00 140.00 Z"/>
</g>
<g fill="None" fill-opacity="0.0" stroke="#004AAD" stroke-opacity="0.50" stroke-width="0.3"><path d="
M 10.00 482.00 
C 8.29 472.94 7.42 460.75 8.00 450.00 C 8.15 309.08 7.70 168.12 8.22 27.22 C 7.53 18.13 19.77 12.47 22.00 8.00
C -4.11 18.34 9.31 52.85 6.00 75.00 C 6.00 184.67 6.00 294.33 6.00 404.00 C 8.24 429.60 1.26 458.78 10.00 482.00 Z"/>
</g>
<g fill="None" fill-opacity="0.0" stroke="#004AAD" stroke-opacity="0.50" stroke-width="0.3"><path d="
M 489.00 484.00 
C 499.72 461.08 491.34 431.61 494.00 406.00 C 494.00 295.33 494.00 184.67 494.00 74.00 C 490.80 52.14 503.96 18.06 478.00 8.00
C 479.85 12.37 491.99 17.56 491.67 26.33 C 492.44 136.40 491.78 246.80 492.00 357.00 C 490.25 398.91 495.66 444.43 489.00 484.00 Z"/>
</g>
<g fill="None" fill-opacity="0.0" stroke="#90B0DB" stroke-opacity="1.00" stroke-width="0.3"><path d="
M 221.00 374.00 
C 221.00 374.04 220.00 374.00 220.00 374.00
C 157.67 374.00 95.33 374.00 33.00 374.00
C 33.00 296.00 33.00 218.00 33.00 140.00
C 49.33 140.00 65.67 140.00 82.00 140.00
C 66.32 137.67 48.50 139.67 32.00 139.00
C 32.00 217.67 32.00 296.33 32.00 375.00
C 94.85 374.33 158.90 376.33 221.00 374.00 Z"/>
</g>
<g fill="None" fill-opacity="0.0" stroke="#7FA4D5" stroke-opacity="1.00" stroke-width="0.3"><path d="
M 172.00 140.00 
C 243.33 140.00 314.67 140.00 386.00 140.00
C 385.93 139.99 386.00 139.00 386.00 139.00
C 314.82 139.67 242.43 137.67 172.00 140.00 Z"/>
</g>
<g fill="None" fill-opacity="0.0" stroke="#4379C2" stroke-opacity="1.00" stroke-width="0.3"><path d="
M 386.00 140.00 
C 388.33 140.00 390.67 140.00 393.00 140.00
C 391.62 137.86 388.19 139.52 386.00 139.00
C 386.00 139.00 385.93 139.99 386.00 140.00 Z"/>
</g>
<g fill="None" fill-opacity="0.0" stroke="#FEFEFE" stroke-opacity="1.00" stroke-width="0.3"><path d="
M 220.00 374.00 
C 220.00 351.00 220.00 328.00 220.00 305.00 C 221.54 296.05 214.37 276.94 230.00 281.00 C 253.33 281.00 276.67 281.00 300.00 281.00
C 300.00 267.67 300.00 254.33 300.00 241.00
C 273.67 241.00 247.33 241.00 221.00 241.00
C 219.34 221.74 219.33 199.19 221.00 180.00
C 249.00 180.00 277.00 180.00 305.00 180.00
C 307.33 243.76 305.33 309.48 306.00 374.00
C 339.00 374.00 372.00 374.00 405.00 374.00
C 438.31 373.77 477.61 351.89 479.00 315.00
C 479.00 308.67 479.00 302.33 479.00 296.00
C 478.31 284.58 473.83 273.54 465.75 265.25 C 458.42 256.85 445.66 255.10 438.00 250.00
C 458.98 246.18 474.75 224.72 473.00 203.00
C 473.00 199.33 473.00 195.67 473.00 192.00
C 472.57 151.60 426.04 139.51 393.00 140.00
C 390.67 140.00 388.33 140.00 386.00 140.00
C 314.67 140.00 243.33 140.00 172.00 140.00
C 172.00 204.33 172.00 268.67 172.00 333.00
C 143.07 334.67 110.86 334.67 82.00 333.00
C 82.00 268.67 82.00 204.33 82.00 140.00
C 65.67 140.00 49.33 140.00 33.00 140.00
C 33.00 218.00 33.00 296.00 33.00 374.00
C 95.33 374.00 157.67 374.00 220.00 374.00
M 392.00 181.00 
C 404.15 181.36 420.10 185.92 422.00 200.00
C 423.57 202.94 423.71 209.13 422.00 212.00
C 420.94 225.86 405.93 231.26 394.00 232.00
C 381.91 234.32 367.85 232.34 355.00 233.00
C 355.67 215.50 353.67 196.68 356.00 180.00
C 367.83 180.67 380.99 178.67 392.00 181.00
M 397.00 273.00 
C 413.80 272.94 431.29 286.48 428.00 305.00 C 428.01 323.16 409.51 333.71 393.00 333.00
C 381.24 335.32 367.51 333.34 355.00 334.00
C 355.67 313.50 353.67 291.68 356.00 272.00
C 367.00 272.00 378.00 272.00 389.00 272.00
C 391.52 272.56 395.30 270.81 397.00 273.00 Z"/>
</g>
<g fill="None" fill-opacity="0.0" stroke="#3570BE" stroke-opacity="1.00" stroke-width="0.3"><path d="
M 82.00 333.00 
C 82.00 333.04 83.00 333.00 83.00 333.00
C 82.33 268.82 84.33 203.43 82.00 140.00
C 82.00 204.33 82.00 268.67 82.00 333.00 Z"/>
</g>
<g fill="None" fill-opacity="0.0" stroke="#608ECC" stroke-opacity="1.00" stroke-width="0.3"><path d="
M 171.00 333.00 
C 171.50 333.00 172.00 333.00 172.00 333.00
C 172.00 268.67 172.00 204.33 172.00 140.00
C 169.67 203.35 171.67 268.83 171.00 333.00 Z"/>
</g>
<g fill="None" fill-opacity="0.0" stroke="#A8C1E3" stroke-opacity="1.00" stroke-width="0.3"><path d="
M 221.00 241.00 
C 221.00 221.00 221.00 201.00 221.00 181.00
C 221.00 180.50 221.00 180.00 221.00 180.00
C 219.33 199.19 219.34 221.74 221.00 241.00 Z"/>
</g>
<g fill="None" fill-opacity="0.0" stroke="#4077C2" stroke-opacity="1.00" stroke-width="0.3"><path d="
M 221.00 181.00 
C 249.00 181.00 277.00 181.00 305.00 181.00
C 305.00 180.50 305.00 180.00 305.00 180.00
C 277.00 180.00 249.00 180.00 221.00 180.00
C 221.00 180.00 221.00 180.50 221.00 181.00 Z"/>
</g>
<g fill="None" fill-opacity="0.0" stroke="#729BD1" stroke-opacity="1.00" stroke-width="0.3"><path d="
M 305.00 181.00 
C 305.00 242.67 305.00 304.33 305.00 366.00 C 302.13 381.88 323.77 372.50 333.00 375.00 C 356.85 374.33 381.90 376.33 405.00 374.00
C 372.00 374.00 339.00 374.00 306.00 374.00
C 305.33 309.48 307.33 243.76 305.00 180.00
C 305.00 180.00 305.00 180.50 305.00 181.00 Z"/>
</g>
<g fill="None" fill-opacity="0.0" stroke="#769ED3" stroke-opacity="1.00" stroke-width="0.3"><path d="
M 394.00 232.00 
C 381.33 232.00 368.67 232.00 356.00 232.00
C 356.00 215.00 356.00 198.00 356.00 181.00
C 356.00 180.50 356.00 180.00 356.00 180.00
C 353.67 196.68 355.67 215.50 355.00 233.00
C 367.85 232.34 381.91 234.32 394.00 232.00 Z"/>
</g>
<g fill="None" fill-opacity="0.0" stroke="#497EC5" stroke-opacity="1.00" stroke-width="0.3"><path d="
M 356.00 181.00 
C 368.00 181.00 380.00 181.00 392.00 181.00
C 380.99 178.67 367.83 180.67 356.00 180.00
C 356.00 180.00 356.00 180.50 356.00 181.00 Z"/>
</g>
<g fill="None" fill-opacity="0.0" stroke="#004AAD" stroke-opacity="1.00" stroke-width="0.3"><path d="
M 394.00 232.00 
C 405.93 231.26 420.94 225.86 422.00 212.00
C 422.00 208.00 422.00 204.00 422.00 200.00
C 420.10 185.92 404.15 181.36 392.00 181.00
C 380.00 181.00 368.00 181.00 356.00 181.00
C 356.00 198.00 356.00 215.00 356.00 232.00
C 368.67 232.00 381.33 232.00 394.00 232.00 Z"/>
</g>
<g fill="None" fill-opacity="0.0" stroke="#BFD1EA" stroke-opacity="1.00" stroke-width="0.3"><path d="
M 473.00 203.00 
C 474.72 200.46 474.56 194.61 473.00 192.00
C 473.00 195.67 473.00 199.33 473.00 203.00 Z"/>
</g>
<g fill="None" fill-opacity="0.0" stroke="#86A9D8" stroke-opacity="1.00" stroke-width="0.3"><path d="
M 422.00 212.00 
C 423.71 209.13 423.57 202.94 422.00 200.00
C 422.00 204.00 422.00 208.00 422.00 212.00 Z"/>
</g>
<g fill="None" fill-opacity="0.0" stroke="#6591CD" stroke-opacity="1.00" stroke-width="0.3"><path d="
M 300.00 281.00 
C 300.00 281.50 300.00 282.00 300.00 282.00
C 301.67 269.48 301.66 253.59 300.00 241.00
C 300.00 254.33 300.00 267.67 300.00 281.00 Z"/>
</g>
<g fill="None" fill-opacity="0.0" stroke="#739CD2" stroke-opacity="1.00" stroke-width="0.3"><path d="
M 393.00 333.00 
C 380.67 333.00 368.33 333.00 356.00 333.00
C 356.00 313.00 356.00 293.00 356.00 273.00
C 356.00 272.50 356.00 272.00 356.00 272.00
C 353.67 291.68 355.67 313.50 355.00 334.00
C 367.51 333.34 381.24 335.32 393.00 333.00 Z"/>
</g>
<g fill="None" fill-opacity="0.0" stroke="#4178C2" stroke-opacity="1.00" stroke-width="0.3"><path d="
M 356.00 273.00 
C 367.00 273.00 378.00 273.00 389.00 273.00
C 388.96 273.00 389.00 272.00 389.00 272.00
C 378.00 272.00 367.00 272.00 356.00 272.00
C 356.00 272.00 356.00 272.50 356.00 273.00 Z"/>
</g>
<g fill="None" fill-opacity="0.0" stroke="#99B6DE" stroke-opacity="1.00" stroke-width="0.3"><path d="
M 389.00 273.00 
C 391.67 273.00 394.33 273.00 397.00 273.00
C 395.30 270.81 391.52 272.56 389.00 272.00
C 389.00 272.00 388.96 273.00 389.00 273.00 Z"/>
</g>
<g fill="None" fill-opacity="0.0" stroke="#004AAD" stroke-opacity="1.00" stroke-width="0.3"><path d="
M 393.00 333.00 
C 409.51 333.71 428.01 323.16 428.00 305.00 C 431.29 286.48 413.80 272.94 397.00 273.00
C 394.33 273.00 391.67 273.00 389.00 273.00
C 378.00 273.00 367.00 273.00 356.00 273.00
C 356.00 293.00 356.00 313.00 356.00 333.00
C 368.33 333.00 380.67 333.00 393.00 333.00 Z"/>
</g>
<g fill="None" fill-opacity="0.0" stroke="#B3C8E6" stroke-opacity="1.00" stroke-width="0.3"><path d="
M 220.00 374.00 
C 220.00 374.00 221.00 374.04 221.00 374.00
C 221.00 343.33 221.00 312.67 221.00 282.00
C 247.33 282.00 273.67 282.00 300.00 282.00
C 300.00 282.00 300.00 281.50 300.00 281.00
C 276.67 281.00 253.33 281.00 230.00 281.00 C 214.37 276.94 221.54 296.05 220.00 305.00 C 220.00 328.00 220.00 351.00 220.00 374.00 Z"/>
</g>
<g fill="None" fill-opacity="0.0" stroke="#97B5DD" stroke-opacity="1.00" stroke-width="0.3"><path d="
M 479.00 315.00 
C 480.69 309.81 480.63 301.26 479.00 296.00
C 479.00 302.33 479.00 308.67 479.00 315.00 Z"/>
</g>
<g fill="None" fill-opacity="0.0" stroke="#80A5D6" stroke-opacity="1.00" stroke-width="0.3"><path d="
M 172.00 333.00 
C 172.00 333.00 171.50 333.00 171.00 333.00
C 141.67 333.00 112.33 333.00 83.00 333.00
C 83.00 333.00 82.00 333.04 82.00 333.00
C 110.86 334.67 143.07 334.67 172.00 333.00 Z"/>
</g>
<g fill="#000000" fill-opacity="0.00" stroke="None">
<path d="
M 0.00 500.00 
L 500.00 500.00
L 500.00 0.00
L 0.00 0.00
L 0.00 500.00
M 478.00 8.00 
C 503.96 18.06 490.80 52.14 494.00 74.00 C 494.00 184.67 494.00 295.33 494.00 406.00 C 491.34 431.61 499.72 461.08 489.00 484.00
C 474.26 501.38 447.23 489.50 427.00 493.00 C 308.33 493.00 189.67 493.00 71.00 493.00 C 51.16 489.47 22.19 502.09 10.00 482.00
C 1.26 458.78 8.24 429.60 6.00 404.00 C 6.00 294.33 6.00 184.67 6.00 75.00 C 9.31 52.85 -4.11 18.34 22.00 8.00
C 172.93 6.33 327.14 6.33 478.00 8.00 Z"/>
</g>
<g fill="#004AAD" fill-opacity="1.00" stroke="None">
<path d="
M 22.00 8.00 
C 19.77 12.47 7.53 18.13 8.22 27.22 C 7.70 168.12 8.15 309.08 8.00 450.00 C 7.42 460.75 8.29 472.94 10.00 482.00
C 22.19 502.09 51.16 489.47 71.00 493.00 C 189.67 493.00 308.33 493.00 427.00 493.00 C 447.23 489.50 474.26 501.38 489.00 484.00
C 495.66 444.43 490.25 398.91 492.00 357.00 C 491.78 246.80 492.44 136.40 491.67 26.33 C 491.99 17.56 479.85 12.37 478.00 8.00
C 327.14 6.33 172.93 6.33 22.00 8.00
M 82.00 140.00 
C 84.33 203.43 82.33 268.82 83.00 333.00
C 112.33 333.00 141.67 333.00 171.00 333.00
C 171.67 268.83 169.67 203.35 172.00 140.00
C 242.43 137.67 314.82 139.67 386.00 139.00
C 388.19 139.52 391.62 137.86 393.00 140.00
C 426.04 139.51 472.57 151.60 473.00 192.00
C 474.56 194.61 474.72 200.46 473.00 203.00
C 474.75 224.72 458.98 246.18 438.00 250.00
C 445.66 255.10 458.42 256.85 465.75 265.25 C 473.83 273.54 478.31 284.58 479.00 296.00
C 480.63 301.26 480.69 309.81 479.00 315.00
C 477.61 351.89 438.31 373.77 405.00 374.00
C 381.90 376.33 356.85 374.33 333.00 375.00 C 323.77 372.50 302.13 381.88 305.00 366.00 C 305.00 304.33 305.00 242.67 305.00 181.00
C 277.00 181.00 249.00 181.00 221.00 181.00
C 221.00 201.00 221.00 221.00 221.00 241.00
C 247.33 241.00 273.67 241.00 300.00 241.00
C 301.66 253.59 301.67 269.48 300.00 282.00
C 273.67 282.00 247.33 282.00 221.00 282.00
C 221.00 312.67 221.00 343.33 221.00 374.00
C 158.90 376.33 94.85 374.33 32.00 375.00
C 32.00 296.33 32.00 217.67 32.00 139.00
C 48.50 139.67 66.32 137.67 82.00 140.00 Z"/>
</g>
<g fill="#004AAD" fill-opacity="0.50" stroke="None">
<path d="
M 10.00 482.00 
C 8.29 472.94 7.42 460.75 8.00 450.00 C 8.15 309.08 7.70 168.12 8.22 27.22 C 7.53 18.13 19.77 12.47 22.00 8.00
C -4.11 18.34 9.31 52.85 6.00 75.00 C 6.00 184.67 6.00 294.33 6.00 404.00 C 8.24 429.60 1.26 458.78 10.00 482.00 Z"/>
</g>
<g fill="#004AAD" fill-opacity="0.50" stroke="None">
<path d="
M 489.00 484.00 
C 499.72 461.08 491.34 431.61 494.00 406.00 C 494.00 295.33 494.00 184.67 494.00 74.00 C 490.80 52.14 503.96 18.06 478.00 8.00
C 479.85 12.37 491.99 17.56 491.67 26.33 C 492.44 136.40 491.78 246.80 492.00 357.00 C 490.25 398.91 495.66 444.43 489.00 484.00 Z"/>
</g>
<g fill="#90B0DB" fill-opacity="1.00" stroke="None">
<path d="
M 221.00 374.00 
C 221.00 374.04 220.00 374.00 220.00 374.00
C 157.67 374.00 95.33 374.00 33.00 374.00
C 33.00 296.00 33.00 218.00 33.00 140.00
C 49.33 140.00 65.67 140.00 82.00 140.00
C 66.32 137.67 48.50 139.67 32.00 139.00
C 32.00 217.67 32.00 296.33 32.00 375.00
C 94.85 374.33 158.90 376.33 221.00 374.00 Z"/>
</g>
<g fill="#7FA4D5" fill-opacity="1.00" stroke="None">
<path d="
M 172.00 140.00 
C 243.33 140.00 314.67 140.00 386.00 140.00
C 385.93 139.99 386.00 139.00 386.00 139.00
C 314.82 139.67 242.43 137.67 172.00 140.00 Z"/>
</g>
<g fill="#4379C2" fill-opacity="1.00" stroke="None">
<path d="
M 386.00 140.00 
C 388.33 140.00 390.67 140.00 393.00 140.00
C 391.62 137.86 388.19 139.52 386.00 139.00
C 386.00 139.00 385.93 139.99 386.00 140.00 Z"/>
</g>
<g fill="#FEFEFE" fill-opacity="1.00" stroke="None">
<path d="
M 220.00 374.00 
C 220.00 351.00 220.00 328.00 220.00 305.00 C 221.54 296.05 214.37 276.94 230.00 281.00 C 253.33 281.00 276.67 281.00 300.00 281.00
C 300.00 267.67 300.00 254.33 300.00 241.00
C 273.67 241.00 247.33 241.00 221.00 241.00
C 219.34 221.74 219.33 199.19 221.00 180.00
C 249.00 180.00 277.00 180.00 305.00 180.00
C 307.33 243.76 305.33 309.48 306.00 374.00
C 339.00 374.00 372.00 374.00 405.00 374.00
C 438.31 373.77 477.61 351.89 479.00 315.00
C 479.00 308.67 479.00 302.33 479.00 296.00
C 478.31 284.58 473.83 273.54 465.75 265.25 C 458.42 256.85 445.66 255.10 438.00 250.00
C 458.98 246.18 474.75 224.72 473.00 203.00
C 473.00 199.33 473.00 195.67 473.00 192.00
C 472.57 151.60 426.04 139.51 393.00 140.00
C 390.67 140.00 388.33 140.00 386.00 140.00
C 314.67 140.00 243.33 140.00 172.00 140.00
C 172.00 204.33 172.00 268.67 172.00 333.00
C 143.07 334.67 110.86 334.67 82.00 333.00
C 82.00 268.67 82.00 204.33 82.00 140.00
C 65.67 140.00 49.33 140.00 33.00 140.00
C 33.00 218.00 33.00 296.00 33.00 374.00
C 95.33 374.00 157.67 374.00 220.00 374.00
M 392.00 181.00 
C 404.15 181.36 420.10 185.92 422.00 200.00
C 423.57 202.94 423.71 209.13 422.00 212.00
C 420.94 225.86 405.93 231.26 394.00 232.00
C 381.91 234.32 367.85 232.34 355.00 233.00
C 355.67 215.50 353.67 196.68 356.00 180.00
C 367.83 180.67 380.99 178.67 392.00 181.00
M 397.00 273.00 
C 413.80 272.94 431.29 286.48 428.00 305.00 C 428.01 323.16 409.51 333.71 393.00 333.00
C 381.24 335.32 367.51 333.34 355.00 334.00
C 355.67 313.50 353.67 291.68 356.00 272.00
C 367.00 272.00 378.00 272.00 389.00 272.00
C 391.52 272.56 395.30 270.81 397.00 273.00 Z"/>
</g>
<g fill="#3570BE" fill-opacity="1.00" stroke="None">
<path d="
M 82.00 333.00 
C 82.00 333.04 83.00 333.00 83.00 333.00
C 82.33 268.82 84.33 203.43 82.00 140.00
C 82.00 204.33 82.00 268.67 82.00 333.00 Z"/>
</g>
<g fill="#608ECC" fill-opacity="1.00" stroke="None">
<path d="
M 171.00 333.00 
C 171.50 333.00 172.00 333.00 172.00 333.00
C 172.00 268.67 172.00 204.33 172.00 140.00
C 169.67 203.35 171.67 268.83 171.00 333.00 Z"/>
</g>
<g fill="#A8C1E3" fill-opacity="1.00" stroke="None">
<path d="
M 221.00 241.00 
C 221.00 221.00 221.00 201.00 221.00 181.00
C 221.00 180.50 221.00 180.00 221.00 180.00
C 219.33 199.19 219.34 221.74 221.00 241.00 Z"/>
</g>
<g fill="#4077C2" fill-opacity="1.00" stroke="None">
<path d="
M 221.00 181.00 
C 249.00 181.00 277.00 181.00 305.00 181.00
C 305.00 180.50 305.00 180.00 305.00 180.00
C 277.00 180.00 249.00 180.00 221.00 180.00
C 221.00 180.00 221.00 180.50 221.00 181.00 Z"/>
</g>
<g fill="#729BD1" fill-opacity="1.00" stroke="None">
<path d="
M 305.00 181.00 
C 305.00 242.67 305.00 304.33 305.00 366.00 C 302.13 381.88 323.77 372.50 333.00 375.00 C 356.85 374.33 381.90 376.33 405.00 374.00
C 372.00 374.00 339.00 374.00 306.00 374.00
C 305.33 309.48 307.33 243.76 305.00 180.00
C 305.00 180.00 305.00 180.50 305.00 181.00 Z"/>
</g>
<g fill="#769ED3" fill-opacity="1.00" stroke="None">
<path d="
M 394.00 232.00 
C 381.33 232.00 368.67 232.00 356.00 232.00
C 356.00 215.00 356.00 198.00 356.00 181.00
C 356.00 180.50 356.00 180.00 356.00 180.00
C 353.67 196.68 355.67 215.50 355.00 233.00
C 367.85 232.34 381.91 234.32 394.00 232.00 Z"/>
</g>
<g fill="#497EC5" fill-opacity="1.00" stroke="None">
<path d="
M 356.00 181.00 
C 368.00 181.00 380.00 181.00 392.00 181.00
C 380.99 178.67 367.83 180.67 356.00 180.00
C 356.00 180.00 356.00 180.50 356.00 181.00 Z"/>
</g>
<g fill="#004AAD" fill-opacity="1.00" stroke="None">
<path d="
M 394.00 232.00 
C 405.93 231.26 420.94 225.86 422.00 212.00
C 422.00 208.00 422.00 204.00 422.00 200.00
C 420.10 185.92 404.15 181.36 392.00 181.00
C 380.00 181.00 368.00 181.00 356.00 181.00
C 356.00 198.00 356.00 215.00 356.00 232.00
C 368.67 232.00 381.33 232.00 394.00 232.00 Z"/>
</g>
<g fill="#BFD1EA" fill-opacity="1.00" stroke="None">
<path d="
M 473.00 203.00 
C 474.72 200.46 474.56 194.61 473.00 192.00
C 473.00 195.67 473.00 199.33 473.00 203.00 Z"/>
</g>
<g fill="#86A9D8" fill-opacity="1.00" stroke="None">
<path d="
M 422.00 212.00 
C 423.71 209.13 423.57 202.94 422.00 200.00
C 422.00 204.00 422.00 208.00 422.00 212.00 Z"/>
</g>
<g fill="#6591CD" fill-opacity="1.00" stroke="None">
<path d="
M 300.00 281.00 
C 300.00 281.50 300.00 282.00 300.00 282.00
C 301.67 269.48 301.66 253.59 300.00 241.00
C 300.00 254.33 300.00 267.67 300.00 281.00 Z"/>
</g>
<g fill="#739CD2" fill-opacity="1.00" stroke="None">
<path d="
M 393.00 333.00 
C 380.67 333.00 368.33 333.00 356.00 333.00
C 356.00 313.00 356.00 293.00 356.00 273.00
C 356.00 272.50 356.00 272.00 356.00 272.00
C 353.67 291.68 355.67 313.50 355.00 334.00
C 367.51 333.34 381.24 335.32 393.00 333.00 Z"/>
</g>
<g fill="#4178C2" fill-opacity="1.00" stroke="None">
<path d="
M 356.00 273.00 
C 367.00 273.00 378.00 273.00 389.00 273.00
C 388.96 273.00 389.00 272.00 389.00 272.00
C 378.00 272.00 367.00 272.00 356.00 272.00
C 356.00 272.00 356.00 272.50 356.00 273.00 Z"/>
</g>
<g fill="#99B6DE" fill-opacity="1.00" stroke="None">
<path d="
M 389.00 273.00 
C 391.67 273.00 394.33 273.00 397.00 273.00
C 395.30 270.81 391.52 272.56 389.00 272.00
C 389.00 272.00 388.96 273.00 389.00 273.00 Z"/>
</g>
<g fill="#004AAD" fill-opacity="1.00" stroke="None">
<path d="
M 393.00 333.00 
C 409.51 333.71 428.01 323.16 428.00 305.00 C 431.29 286.48 413.80 272.94 397.00 273.00
C 394.33 273.00 391.67 273.00 389.00 273.00
C 378.00 273.00 367.00 273.00 356.00 273.00
C 356.00 293.00 356.00 313.00 356.00 333.00
C 368.33 333.00 380.67 333.00 393.00 333.00 Z"/>
</g>
<g fill="#B3C8E6" fill-opacity="1.00" stroke="None">
<path d="
M 220.00 374.00 
C 220.00 374.00 221.00 374.04 221.00 374.00
C 221.00 343.33 221.00 312.67 221.00 282.00
C 247.33 282.00 273.67 282.00 300.00 282.00
C 300.00 282.00 300.00 281.50 300.00 281.00
C 276.67 281.00 253.33 281.00 230.00 281.00 C 214.37 276.94 221.54 296.05 220.00 305.00 C 220.00 328.00 220.00 351.00 220.00 374.00 Z"/>
</g>
<g fill="#97B5DD" fill-opacity="1.00" stroke="None">
<path d="
M 479.00 315.00 
C 480.69 309.81 480.63 301.26 479.00 296.00
C 479.00 302.33 479.00 308.67 479.00 315.00 Z"/>
</g>
<g fill="#80A5D6" fill-opacity="1.00" stroke="None">
<path d="
M 172.00 333.00 
C 172.00 333.00 171.50 333.00 171.00 333.00
C 141.67 333.00 112.33 333.00 83.00 333.00
C 83.00 333.00 82.00 333.04 82.00 333.00
C 110.86 334.67 143.07 334.67 172.00 333.00 Z"/>
</g>
</svg>